<svg xmlns="http://www.w3.org/2000/svg" xmlns:xlink="http://www.w3.org/1999/xlink" width="500" zoomAndPan="magnify" viewBox="0 0 375 374.999991" height="500" preserveAspectRatio="xMidYMid meet" version="1.0"><defs><clipPath id="690a932a46"><path d="M 37.5 37.5 L 337.5 37.5 L 337.5 337.5 L 37.5 337.5 Z M 37.5 37.5 " clip-rule="nonzero"/></clipPath></defs><rect x="-37.5" width="450" fill="#ffffff" y="-37.499999" height="449.999989" fill-opacity="1"/><rect x="-37.5" width="450" fill="#ffffff" y="-37.499999" height="449.999989" fill-opacity="1"/><path fill="#000000" d="M 140.929688 267.007812 C 140.929688 267.429688 140.886719 267.847656 140.804688 268.257812 C 140.722656 268.671875 140.601562 269.070312 140.441406 269.460938 C 140.28125 269.847656 140.082031 270.21875 139.847656 270.566406 C 139.617188 270.917969 139.351562 271.242188 139.054688 271.539062 C 138.753906 271.835938 138.433594 272.101562 138.082031 272.335938 C 137.734375 272.566406 137.363281 272.765625 136.976562 272.925781 C 136.585938 273.085938 136.1875 273.207031 135.773438 273.289062 C 135.359375 273.371094 134.945312 273.414062 134.523438 273.414062 C 134.105469 273.414062 133.6875 273.371094 133.273438 273.289062 C 132.863281 273.207031 132.460938 273.085938 132.074219 272.925781 C 131.683594 272.765625 131.316406 272.566406 130.964844 272.335938 C 130.617188 272.101562 130.292969 271.835938 129.996094 271.539062 C 129.699219 271.242188 129.433594 270.917969 129.199219 270.566406 C 128.964844 270.21875 128.769531 269.847656 128.605469 269.460938 C 128.445312 269.070312 128.324219 268.671875 128.242188 268.257812 C 128.160156 267.847656 128.121094 267.429688 128.121094 267.007812 C 128.121094 266.589844 128.160156 266.171875 128.242188 265.757812 C 128.324219 265.347656 128.445312 264.945312 128.605469 264.558594 C 128.769531 264.167969 128.964844 263.800781 129.199219 263.449219 C 129.433594 263.101562 129.699219 262.777344 129.996094 262.480469 C 130.292969 262.183594 130.617188 261.917969 130.964844 261.683594 C 131.316406 261.449219 131.683594 261.253906 132.074219 261.09375 C 132.460938 260.929688 132.863281 260.808594 133.273438 260.726562 C 133.6875 260.644531 134.105469 260.605469 134.523438 260.605469 C 134.945312 260.605469 135.359375 260.644531 135.773438 260.726562 C 136.1875 260.808594 136.585938 260.929688 136.976562 261.09375 C 137.363281 261.253906 137.734375 261.449219 138.082031 261.683594 C 138.433594 261.917969 138.753906 262.183594 139.054688 262.480469 C 139.351562 262.777344 139.617188 263.101562 139.847656 263.449219 C 140.082031 263.800781 140.28125 264.167969 140.441406 264.558594 C 140.601562 264.945312 140.722656 265.347656 140.804688 265.757812 C 140.886719 266.171875 140.929688 266.589844 140.929688 267.007812 Z M 140.929688 267.007812 " fill-opacity="1" fill-rule="nonzero"/><path fill="#000000" d="M 246.046875 267.007812 C 246.046875 267.429688 246.003906 267.847656 245.921875 268.257812 C 245.839844 268.671875 245.71875 269.070312 245.558594 269.460938 C 245.398438 269.847656 245.199219 270.21875 244.964844 270.566406 C 244.730469 270.917969 244.46875 271.242188 244.167969 271.539062 C 243.871094 271.835938 243.546875 272.101562 243.199219 272.335938 C 242.847656 272.566406 242.480469 272.765625 242.089844 272.925781 C 241.703125 273.085938 241.304688 273.207031 240.890625 273.289062 C 240.476562 273.371094 240.0625 273.414062 239.640625 273.414062 C 239.21875 273.414062 238.804688 273.371094 238.390625 273.289062 C 237.980469 273.207031 237.578125 273.085938 237.191406 272.925781 C 236.800781 272.765625 236.433594 272.566406 236.082031 272.335938 C 235.734375 272.101562 235.410156 271.835938 235.113281 271.539062 C 234.816406 271.242188 234.550781 270.917969 234.316406 270.566406 C 234.082031 270.21875 233.886719 269.847656 233.722656 269.460938 C 233.5625 269.070312 233.441406 268.671875 233.359375 268.257812 C 233.277344 267.847656 233.238281 267.429688 233.238281 267.007812 C 233.238281 266.589844 233.277344 266.171875 233.359375 265.757812 C 233.441406 265.347656 233.5625 264.945312 233.722656 264.558594 C 233.886719 264.167969 234.082031 263.800781 234.316406 263.449219 C 234.550781 263.101562 234.816406 262.777344 235.113281 262.480469 C 235.410156 262.183594 235.734375 261.917969 236.082031 261.683594 C 236.433594 261.449219 236.800781 261.253906 237.191406 261.09375 C 237.578125 260.929688 237.980469 260.808594 238.390625 260.726562 C 238.804688 260.644531 239.21875 260.605469 239.640625 260.605469 C 240.0625 260.605469 240.476562 260.644531 240.890625 260.726562 C 241.304688 260.808594 241.703125 260.929688 242.089844 261.09375 C 242.480469 261.253906 242.847656 261.449219 243.199219 261.683594 C 243.546875 261.917969 243.871094 262.183594 244.167969 262.480469 C 244.46875 262.777344 244.730469 263.101562 244.964844 263.449219 C 245.199219 263.800781 245.398438 264.167969 245.558594 264.558594 C 245.71875 264.945312 245.839844 265.347656 245.921875 265.757812 C 246.003906 266.171875 246.046875 266.589844 246.046875 267.007812 Z M 246.046875 267.007812 " fill-opacity="1" fill-rule="nonzero"/><g clip-path="url(#690a932a46)"><path fill="#000000" d="M 187.472656 37.410156 C 104.65625 37.410156 37.519531 104.550781 37.519531 187.367188 C 37.519531 270.183594 104.65625 337.332031 187.472656 337.332031 C 270.292969 337.332031 337.433594 270.183594 337.433594 187.367188 C 337.433594 104.550781 270.292969 37.410156 187.472656 37.410156 Z M 146.492188 245.046875 L 239.640625 245.046875 C 251.75 245.046875 261.601562 254.898438 261.601562 267.007812 C 261.601562 279.117188 251.75 288.972656 239.640625 288.972656 C 227.53125 288.972656 217.675781 279.117188 217.675781 267.007812 C 217.675781 264.78125 218.015625 262.632812 218.632812 260.605469 L 155.527344 260.605469 C 156.148438 262.632812 156.484375 264.777344 156.484375 267.007812 C 156.484375 279.117188 146.636719 288.972656 134.523438 288.972656 C 122.414062 288.972656 112.5625 279.117188 112.5625 267.007812 C 112.5625 256.191406 120.433594 247.195312 130.742188 245.398438 L 126.882812 224.132812 L 126.839844 223.929688 L 106.363281 122.589844 L 87.546875 122.714844 L 87.445312 107.15625 L 119.074219 106.945312 L 126.730469 144.816406 L 268.53125 161.820312 L 250.519531 230.460938 L 143.84375 230.460938 Z M 146.492188 245.046875 " fill-opacity="1" fill-rule="nonzero"/></g></svg>